<svg width="56" height="56" viewBox="0 0 56 56" fill="none" xmlns="http://www.w3.org/2000/svg">
<g filter="url(#filter0_di_524_230)">
<path fill-rule="evenodd" clip-rule="evenodd" d="M4.54837 13.9895C4.82879 7.78998 9.78989 2.82698 15.9893 2.5442L27.92 2L40.0058 2.54745C46.2073 2.82835 51.1708 7.79274 51.4506 13.9943L52 26.1707L51.4575 38.016C51.1737 44.2132 46.2131 49.1725 40.0158 49.4546L28.0346 50L15.987 49.4532C9.78854 49.1719 4.82673 44.2115 4.54359 38.0131L4 26.1131L4.54837 13.9895Z" fill="url(#paint0_linear_524_230)"/>
</g>
<g filter="url(#filter1_d_524_230)">
<rect x="16" y="12" width="18" height="7" rx="2" fill="url(#paint1_linear_524_230)"/>
<g filter="url(#filter2_i_524_230)">
<path d="M16 15.9998H38C39.1046 15.9998 40 16.8952 40 17.9998V36.9998C40 38.1044 39.1046 38.9998 38 38.9998H18C16.8954 38.9998 16 38.1044 16 36.9998V15.9998Z" fill="url(#paint2_linear_524_230)"/>
</g>
<mask id="mask0_524_230" style="mask-type:luminance" maskUnits="userSpaceOnUse" x="16" y="15" width="24" height="24">
<path d="M16 15.9998H38C39.1046 15.9998 40 16.8952 40 17.9998V36.9998C40 38.1044 39.1046 38.9998 38 38.9998H18C16.8954 38.9998 16 38.1044 16 36.9998V15.9998Z" fill="white"/>
</mask>
<g mask="url(#mask0_524_230)">
<g filter="url(#filter3_d_524_230)">
<path fill-rule="evenodd" clip-rule="evenodd" d="M15.8643 30.578C15.8643 30.578 17.4827 33.6718 20.8643 35.225C24.2458 36.7782 39.8643 31.9652 39.8643 31.9652L41.8643 29.4305L40.8643 40.6512L25.3643 44.6898L11.8643 41.5643L15.8643 30.578Z" fill="url(#paint3_linear_524_230)"/>
</g>
<g filter="url(#filter4_d_524_230)">
<path fill-rule="evenodd" clip-rule="evenodd" d="M24.3774 12.1306C24.3774 12.1306 27.1252 19.6502 36.0297 23.383C44.9341 27.1157 39.9023 30.6035 39.9023 30.6035L39.5802 33.8161L46.6555 25.0499L38.3111 11.3776L26.4289 4.24802L24.3774 12.1306Z" fill="url(#paint4_linear_524_230)"/>
</g>
</g>
<path fill-rule="evenodd" clip-rule="evenodd" d="M30.9481 27.0118C31.6048 26.6834 31.6048 25.7463 30.9481 25.4179L25.8315 22.8596C25.239 22.5634 24.542 22.9942 24.542 23.6565V28.7732C24.542 29.4355 25.239 29.8663 25.8315 29.5701L30.9481 27.0118Z" fill="url(#paint5_linear_524_230)"/>
</g>
<defs>
<filter id="filter0_di_524_230" x="0" y="0" width="56" height="56" filterUnits="userSpaceOnUse" color-interpolation-filters="sRGB">
<feFlood flood-opacity="0" result="BackgroundImageFix"/>
<feColorMatrix in="SourceAlpha" type="matrix" values="0 0 0 0 0 0 0 0 0 0 0 0 0 0 0 0 0 0 127 0" result="hardAlpha"/>
<feOffset dy="2"/>
<feGaussianBlur stdDeviation="2"/>
<feColorMatrix type="matrix" values="0 0 0 0 0.313726 0 0 0 0 0.572549 0 0 0 0 0.988235 0 0 0 0.2 0"/>
<feBlend mode="normal" in2="BackgroundImageFix" result="effect1_dropShadow_524_230"/>
<feBlend mode="normal" in="SourceGraphic" in2="effect1_dropShadow_524_230" result="shape"/>
<feColorMatrix in="SourceAlpha" type="matrix" values="0 0 0 0 0 0 0 0 0 0 0 0 0 0 0 0 0 0 127 0" result="hardAlpha"/>
<feOffset dy="1"/>
<feGaussianBlur stdDeviation="1.5"/>
<feComposite in2="hardAlpha" operator="arithmetic" k2="-1" k3="1"/>
<feColorMatrix type="matrix" values="0 0 0 0 0.553932 0 0 0 0 0.790794 0 0 0 0 0.994606 0 0 0 1 0"/>
<feBlend mode="normal" in2="shape" result="effect2_innerShadow_524_230"/>
</filter>
<filter id="filter1_d_524_230" x="12" y="10" width="32" height="34.9998" filterUnits="userSpaceOnUse" color-interpolation-filters="sRGB">
<feFlood flood-opacity="0" result="BackgroundImageFix"/>
<feColorMatrix in="SourceAlpha" type="matrix" values="0 0 0 0 0 0 0 0 0 0 0 0 0 0 0 0 0 0 127 0" result="hardAlpha"/>
<feOffset dy="2"/>
<feGaussianBlur stdDeviation="2"/>
<feColorMatrix type="matrix" values="0 0 0 0 0.328503 0 0 0 0 0.522811 0 0 0 0 0.918128 0 0 0 1 0"/>
<feBlend mode="normal" in2="BackgroundImageFix" result="effect1_dropShadow_524_230"/>
<feBlend mode="normal" in="SourceGraphic" in2="effect1_dropShadow_524_230" result="shape"/>
</filter>
<filter id="filter2_i_524_230" x="16" y="15.9998" width="24" height="24" filterUnits="userSpaceOnUse" color-interpolation-filters="sRGB">
<feFlood flood-opacity="0" result="BackgroundImageFix"/>
<feBlend mode="normal" in="SourceGraphic" in2="BackgroundImageFix" result="shape"/>
<feColorMatrix in="SourceAlpha" type="matrix" values="0 0 0 0 0 0 0 0 0 0 0 0 0 0 0 0 0 0 127 0" result="hardAlpha"/>
<feOffset dy="1"/>
<feGaussianBlur stdDeviation="1.5"/>
<feComposite in2="hardAlpha" operator="arithmetic" k2="-1" k3="1"/>
<feColorMatrix type="matrix" values="0 0 0 0 1 0 0 0 0 1 0 0 0 0 1 0 0 0 0.5 0"/>
<feBlend mode="normal" in2="shape" result="effect1_innerShadow_524_230"/>
</filter>
<filter id="filter3_d_524_230" x="1.86426" y="21.4305" width="50" height="35.2593" filterUnits="userSpaceOnUse" color-interpolation-filters="sRGB">
<feFlood flood-opacity="0" result="BackgroundImageFix"/>
<feColorMatrix in="SourceAlpha" type="matrix" values="0 0 0 0 0 0 0 0 0 0 0 0 0 0 0 0 0 0 127 0" result="hardAlpha"/>
<feOffset dy="2"/>
<feGaussianBlur stdDeviation="5"/>
<feColorMatrix type="matrix" values="0 0 0 0 0.34902 0 0 0 0 0.623529 0 0 0 0 0.992157 0 0 0 0.6 0"/>
<feBlend mode="normal" in2="BackgroundImageFix" result="effect1_dropShadow_524_230"/>
<feBlend mode="normal" in="SourceGraphic" in2="effect1_dropShadow_524_230" result="shape"/>
</filter>
<filter id="filter4_d_524_230" x="14.3774" y="-3.75195" width="42.2781" height="49.5681" filterUnits="userSpaceOnUse" color-interpolation-filters="sRGB">
<feFlood flood-opacity="0" result="BackgroundImageFix"/>
<feColorMatrix in="SourceAlpha" type="matrix" values="0 0 0 0 0 0 0 0 0 0 0 0 0 0 0 0 0 0 127 0" result="hardAlpha"/>
<feOffset dy="2"/>
<feGaussianBlur stdDeviation="5"/>
<feColorMatrix type="matrix" values="0 0 0 0 0.34902 0 0 0 0 0.623529 0 0 0 0 0.992157 0 0 0 0.4 0"/>
<feBlend mode="normal" in2="BackgroundImageFix" result="effect1_dropShadow_524_230"/>
<feBlend mode="normal" in="SourceGraphic" in2="effect1_dropShadow_524_230" result="shape"/>
</filter>
<linearGradient id="paint0_linear_524_230" x1="4" y1="2" x2="4" y2="50" gradientUnits="userSpaceOnUse">
<stop stop-color="#6AC2FC"/>
<stop offset="1" stop-color="#497EFE"/>
</linearGradient>
<linearGradient id="paint1_linear_524_230" x1="19.7868" y1="13.9399" x2="19.7868" y2="17.9946" gradientUnits="userSpaceOnUse">
<stop stop-color="white"/>
<stop offset="1" stop-color="#C4E1EF"/>
</linearGradient>
<linearGradient id="paint2_linear_524_230" x1="24.9033" y1="6.98783" x2="7.07694" y2="30.7247" gradientUnits="userSpaceOnUse">
<stop stop-color="white"/>
<stop offset="1" stop-color="white"/>
</linearGradient>
<linearGradient id="paint3_linear_524_230" x1="6.13056" y1="35.7276" x2="8.91569" y2="48.5795" gradientUnits="userSpaceOnUse">
<stop stop-color="white" stop-opacity="0.6"/>
<stop offset="1" stop-color="white" stop-opacity="0.6"/>
</linearGradient>
<linearGradient id="paint4_linear_524_230" x1="18.2499" y1="4.46363" x2="29.181" y2="-2.8465" gradientUnits="userSpaceOnUse">
<stop stop-color="white" stop-opacity="0.6"/>
<stop offset="1" stop-color="white" stop-opacity="0.6"/>
</linearGradient>
<linearGradient id="paint5_linear_524_230" x1="32.542" y1="30.2148" x2="24.542" y2="30.2148" gradientUnits="userSpaceOnUse">
<stop stop-color="#62B3FC"/>
<stop offset="1" stop-color="#4E88FE"/>
</linearGradient>
</defs>
</svg>
